<mxfile host="app.diagrams.net" modified="2021-05-13T15:08:52.596Z" agent="5.0 (X11; Linux x86_64) AppleWebKit/537.36 (KHTML, like Gecko) Chrome/89.0.4389.114 Safari/537.36" etag="0QuXdjId9-2ADrD_PIO5" version="14.6.12" type="github">
  <diagram id="kFHRlbiRz3oi0GWtiiYQ" name="Page-1">
    <mxGraphModel dx="782" dy="458" grid="0" gridSize="10" guides="1" tooltips="1" connect="1" arrows="1" fold="1" page="1" pageScale="1" pageWidth="827" pageHeight="1169" math="0" shadow="0">
      <root>
        <mxCell id="0" />
        <mxCell id="1" parent="0" />
        <mxCell id="_PYNvtz8eXPCkGTq7S7g-1" value="" style="endArrow=classic;html=1;" edge="1" parent="1">
          <mxGeometry width="50" height="50" relative="1" as="geometry">
            <mxPoint x="160" y="99.58" as="sourcePoint" />
            <mxPoint x="320" y="99.58" as="targetPoint" />
          </mxGeometry>
        </mxCell>
        <mxCell id="_PYNvtz8eXPCkGTq7S7g-7" value="" style="edgeStyle=orthogonalEdgeStyle;rounded=0;orthogonalLoop=1;jettySize=auto;html=1;" edge="1" parent="1" source="_PYNvtz8eXPCkGTq7S7g-2" target="_PYNvtz8eXPCkGTq7S7g-6">
          <mxGeometry relative="1" as="geometry" />
        </mxCell>
        <mxCell id="_PYNvtz8eXPCkGTq7S7g-2" value="&lt;font style=&quot;font-size: 16px&quot;&gt;a&lt;/font&gt;" style="text;html=1;strokeColor=none;fillColor=none;align=center;verticalAlign=middle;whiteSpace=wrap;rounded=0;" vertex="1" parent="1">
          <mxGeometry x="120" y="90" width="40" height="20" as="geometry" />
        </mxCell>
        <mxCell id="_PYNvtz8eXPCkGTq7S7g-11" value="" style="edgeStyle=orthogonalEdgeStyle;rounded=0;orthogonalLoop=1;jettySize=auto;html=1;" edge="1" parent="1" source="_PYNvtz8eXPCkGTq7S7g-3" target="_PYNvtz8eXPCkGTq7S7g-10">
          <mxGeometry relative="1" as="geometry" />
        </mxCell>
        <mxCell id="_PYNvtz8eXPCkGTq7S7g-3" value="&lt;font style=&quot;font-size: 16px&quot;&gt;b&lt;/font&gt;" style="text;html=1;strokeColor=none;fillColor=none;align=center;verticalAlign=middle;whiteSpace=wrap;rounded=0;" vertex="1" parent="1">
          <mxGeometry x="320" y="90" width="40" height="20" as="geometry" />
        </mxCell>
        <mxCell id="_PYNvtz8eXPCkGTq7S7g-5" value="&lt;span style=&quot;font-size: 16px&quot;&gt;一步转换&lt;/span&gt;" style="text;html=1;strokeColor=none;fillColor=none;align=center;verticalAlign=middle;whiteSpace=wrap;rounded=0;" vertex="1" parent="1">
          <mxGeometry x="190" y="70" width="90" height="20" as="geometry" />
        </mxCell>
        <mxCell id="_PYNvtz8eXPCkGTq7S7g-14" value="" style="edgeStyle=orthogonalEdgeStyle;rounded=0;orthogonalLoop=1;jettySize=auto;html=1;" edge="1" parent="1" source="_PYNvtz8eXPCkGTq7S7g-6" target="_PYNvtz8eXPCkGTq7S7g-13">
          <mxGeometry relative="1" as="geometry" />
        </mxCell>
        <mxCell id="_PYNvtz8eXPCkGTq7S7g-6" value="&lt;font style=&quot;font-size: 16px&quot;&gt;[a] k&lt;/font&gt;" style="text;html=1;strokeColor=none;fillColor=none;align=center;verticalAlign=middle;whiteSpace=wrap;rounded=0;" vertex="1" parent="1">
          <mxGeometry x="120" y="170" width="40" height="20" as="geometry" />
        </mxCell>
        <mxCell id="_PYNvtz8eXPCkGTq7S7g-8" value="&lt;font style=&quot;font-size: 16px&quot;&gt;CPS转换&lt;/font&gt;" style="text;html=1;strokeColor=none;fillColor=none;align=center;verticalAlign=middle;whiteSpace=wrap;rounded=0;" vertex="1" parent="1">
          <mxGeometry x="90" y="130" width="40" height="20" as="geometry" />
        </mxCell>
        <mxCell id="_PYNvtz8eXPCkGTq7S7g-16" value="" style="edgeStyle=orthogonalEdgeStyle;rounded=0;orthogonalLoop=1;jettySize=auto;html=1;" edge="1" parent="1" source="_PYNvtz8eXPCkGTq7S7g-10" target="_PYNvtz8eXPCkGTq7S7g-15">
          <mxGeometry relative="1" as="geometry" />
        </mxCell>
        <mxCell id="_PYNvtz8eXPCkGTq7S7g-10" value="&lt;font style=&quot;font-size: 16px&quot;&gt;[b] k&lt;/font&gt;" style="text;html=1;strokeColor=none;fillColor=none;align=center;verticalAlign=middle;whiteSpace=wrap;rounded=0;" vertex="1" parent="1">
          <mxGeometry x="320" y="170" width="40" height="20" as="geometry" />
        </mxCell>
        <mxCell id="_PYNvtz8eXPCkGTq7S7g-12" value="&lt;font style=&quot;font-size: 16px&quot;&gt;CPS转换&lt;/font&gt;" style="text;html=1;strokeColor=none;fillColor=none;align=center;verticalAlign=middle;whiteSpace=wrap;rounded=0;" vertex="1" parent="1">
          <mxGeometry x="350" y="130" width="40" height="20" as="geometry" />
        </mxCell>
        <mxCell id="_PYNvtz8eXPCkGTq7S7g-13" value="&lt;font style=&quot;font-size: 16px&quot;&gt;a : k&lt;/font&gt;" style="text;html=1;strokeColor=none;fillColor=none;align=center;verticalAlign=middle;whiteSpace=wrap;rounded=0;" vertex="1" parent="1">
          <mxGeometry x="120" y="250" width="40" height="20" as="geometry" />
        </mxCell>
        <mxCell id="_PYNvtz8eXPCkGTq7S7g-15" value="&lt;font style=&quot;font-size: 16px&quot;&gt;b : k&lt;/font&gt;" style="text;html=1;strokeColor=none;fillColor=none;align=center;verticalAlign=middle;whiteSpace=wrap;rounded=0;" vertex="1" parent="1">
          <mxGeometry x="320" y="250" width="40" height="20" as="geometry" />
        </mxCell>
        <mxCell id="_PYNvtz8eXPCkGTq7S7g-17" value="" style="endArrow=classic;html=1;" edge="1" parent="1">
          <mxGeometry width="50" height="50" relative="1" as="geometry">
            <mxPoint x="170" y="250" as="sourcePoint" />
            <mxPoint x="330" y="210" as="targetPoint" />
          </mxGeometry>
        </mxCell>
        <mxCell id="_PYNvtz8eXPCkGTq7S7g-18" value="&lt;font style=&quot;font-size: 16px&quot;&gt;转换&lt;/font&gt;" style="text;html=1;strokeColor=none;fillColor=none;align=center;verticalAlign=middle;whiteSpace=wrap;rounded=0;" vertex="1" parent="1">
          <mxGeometry x="215" y="210" width="40" height="20" as="geometry" />
        </mxCell>
        <mxCell id="_PYNvtz8eXPCkGTq7S7g-21" value="&lt;span style=&quot;font-size: 16px&quot;&gt;管理性缩减&lt;/span&gt;" style="text;html=1;strokeColor=none;fillColor=none;align=center;verticalAlign=middle;whiteSpace=wrap;rounded=0;" vertex="1" parent="1">
          <mxGeometry x="80" y="210" width="50" height="20" as="geometry" />
        </mxCell>
        <mxCell id="_PYNvtz8eXPCkGTq7S7g-22" value="&lt;span style=&quot;font-size: 16px&quot;&gt;管理性缩减&lt;/span&gt;" style="text;html=1;strokeColor=none;fillColor=none;align=center;verticalAlign=middle;whiteSpace=wrap;rounded=0;" vertex="1" parent="1">
          <mxGeometry x="350" y="210" width="50" height="20" as="geometry" />
        </mxCell>
        <mxCell id="_PYNvtz8eXPCkGTq7S7g-24" value="&lt;span style=&quot;font-size: 16px&quot;&gt;a&lt;/span&gt;" style="text;html=1;strokeColor=none;fillColor=none;align=center;verticalAlign=middle;whiteSpace=wrap;rounded=0;" vertex="1" parent="1">
          <mxGeometry x="480" y="90" width="40" height="20" as="geometry" />
        </mxCell>
        <mxCell id="_PYNvtz8eXPCkGTq7S7g-25" value="&lt;font style=&quot;font-size: 16px&quot;&gt;b&lt;/font&gt;" style="text;html=1;strokeColor=none;fillColor=none;align=center;verticalAlign=middle;whiteSpace=wrap;rounded=0;" vertex="1" parent="1">
          <mxGeometry x="680" y="90" width="40" height="20" as="geometry" />
        </mxCell>
        <mxCell id="_PYNvtz8eXPCkGTq7S7g-26" value="" style="endArrow=classic;html=1;" edge="1" parent="1">
          <mxGeometry width="50" height="50" relative="1" as="geometry">
            <mxPoint x="520" y="99.99999999999999" as="sourcePoint" />
            <mxPoint x="679.9999999999999" y="99.99999999999999" as="targetPoint" />
          </mxGeometry>
        </mxCell>
        <mxCell id="_PYNvtz8eXPCkGTq7S7g-27" style="edgeStyle=orthogonalEdgeStyle;rounded=0;orthogonalLoop=1;jettySize=auto;html=1;exitX=0.5;exitY=1;exitDx=0;exitDy=0;" edge="1" parent="1" source="_PYNvtz8eXPCkGTq7S7g-25" target="_PYNvtz8eXPCkGTq7S7g-25">
          <mxGeometry relative="1" as="geometry" />
        </mxCell>
        <mxCell id="_PYNvtz8eXPCkGTq7S7g-28" value="&lt;span style=&quot;font-size: 16px&quot;&gt;一步转换&lt;/span&gt;" style="text;html=1;strokeColor=none;fillColor=none;align=center;verticalAlign=middle;whiteSpace=wrap;rounded=0;" vertex="1" parent="1">
          <mxGeometry x="560" y="70" width="90" height="20" as="geometry" />
        </mxCell>
        <mxCell id="_PYNvtz8eXPCkGTq7S7g-30" value="" style="edgeStyle=orthogonalEdgeStyle;rounded=0;orthogonalLoop=1;jettySize=auto;html=1;exitX=0.5;exitY=1;exitDx=0;exitDy=0;" edge="1" parent="1" source="_PYNvtz8eXPCkGTq7S7g-24">
          <mxGeometry relative="1" as="geometry">
            <mxPoint x="500" y="120" as="sourcePoint" />
            <mxPoint x="500" y="170" as="targetPoint" />
            <Array as="points" />
          </mxGeometry>
        </mxCell>
        <mxCell id="_PYNvtz8eXPCkGTq7S7g-31" value="" style="endArrow=classic;html=1;exitX=0.5;exitY=1;exitDx=0;exitDy=0;" edge="1" parent="1" source="_PYNvtz8eXPCkGTq7S7g-25">
          <mxGeometry width="50" height="50" relative="1" as="geometry">
            <mxPoint x="480" y="220" as="sourcePoint" />
            <mxPoint x="700" y="170" as="targetPoint" />
          </mxGeometry>
        </mxCell>
        <mxCell id="_PYNvtz8eXPCkGTq7S7g-32" value="&lt;font style=&quot;font-size: 16px&quot;&gt;CPS转换&lt;/font&gt;" style="text;html=1;strokeColor=none;fillColor=none;align=center;verticalAlign=middle;whiteSpace=wrap;rounded=0;" vertex="1" parent="1">
          <mxGeometry x="450" y="130" width="40" height="20" as="geometry" />
        </mxCell>
        <mxCell id="_PYNvtz8eXPCkGTq7S7g-33" value="&lt;font style=&quot;font-size: 16px&quot;&gt;CPS转换&lt;/font&gt;" style="text;html=1;strokeColor=none;fillColor=none;align=center;verticalAlign=middle;whiteSpace=wrap;rounded=0;" vertex="1" parent="1">
          <mxGeometry x="710" y="130" width="40" height="20" as="geometry" />
        </mxCell>
        <mxCell id="_PYNvtz8eXPCkGTq7S7g-34" value="&lt;font style=&quot;font-size: 16px&quot;&gt;[a] k&lt;/font&gt;" style="text;html=1;strokeColor=none;fillColor=none;align=center;verticalAlign=middle;whiteSpace=wrap;rounded=0;" vertex="1" parent="1">
          <mxGeometry x="480" y="170" width="40" height="20" as="geometry" />
        </mxCell>
        <mxCell id="_PYNvtz8eXPCkGTq7S7g-35" value="&lt;font style=&quot;font-size: 16px&quot;&gt;[b] k&lt;/font&gt;" style="text;html=1;strokeColor=none;fillColor=none;align=center;verticalAlign=middle;whiteSpace=wrap;rounded=0;" vertex="1" parent="1">
          <mxGeometry x="680" y="170" width="40" height="20" as="geometry" />
        </mxCell>
        <mxCell id="_PYNvtz8eXPCkGTq7S7g-36" value="" style="endArrow=classic;html=1;" edge="1" parent="1">
          <mxGeometry width="50" height="50" relative="1" as="geometry">
            <mxPoint x="520" y="179.57999999999998" as="sourcePoint" />
            <mxPoint x="680" y="179.57999999999998" as="targetPoint" />
          </mxGeometry>
        </mxCell>
        <mxCell id="_PYNvtz8eXPCkGTq7S7g-37" value="&lt;span style=&quot;font-size: 16px&quot;&gt;一步或多步转换&lt;/span&gt;" style="text;html=1;strokeColor=none;fillColor=none;align=center;verticalAlign=middle;whiteSpace=wrap;rounded=0;" vertex="1" parent="1">
          <mxGeometry x="540" y="150" width="120" height="20" as="geometry" />
        </mxCell>
      </root>
    </mxGraphModel>
  </diagram>
</mxfile>
